<svg width="800" height="600" viewBox="0 0 800 600" xmlns="http://www.w3.org/2000/svg">
    <!-- 背景 -->
    <rect width="100%" height="100%" fill="#f8f9fa" />
    
    <!-- 背景纹理 -->
    <g class="ink-element background-texture">
        <!-- 水平线 -->
        <line x1="0" y1="10" x2="800" y2="10" stroke="#334455" stroke-width="0.5" opacity="0.05" />
        <line x1="0" y1="40" x2="800" y2="40" stroke="#334455" stroke-width="0.5" opacity="0.05" />
        <line x1="0" y1="70" x2="800" y2="70" stroke="#334455" stroke-width="0.5" opacity="0.05" />
        <line x1="0" y1="100" x2="800" y2="100" stroke="#334455" stroke-width="0.5" opacity="0.05" />
        <line x1="0" y1="130" x2="800" y2="130" stroke="#334455" stroke-width="0.5" opacity="0.05" />
        <line x1="0" y1="160" x2="800" y2="160" stroke="#334455" stroke-width="0.5" opacity="0.05" />
        <line x1="0" y1="190" x2="800" y2="190" stroke="#334455" stroke-width="0.5" opacity="0.05" />
        <line x1="0" y1="220" x2="800" y2="220" stroke="#334455" stroke-width="0.5" opacity="0.05" />
        <line x1="0" y1="250" x2="800" y2="250" stroke="#334455" stroke-width="0.5" opacity="0.05" />
        <line x1="0" y1="280" x2="800" y2="280" stroke="#334455" stroke-width="0.5" opacity="0.05" />
        <line x1="0" y1="310" x2="800" y2="310" stroke="#334455" stroke-width="0.5" opacity="0.05" />
        <line x1="0" y1="340" x2="800" y2="340" stroke="#334455" stroke-width="0.5" opacity="0.05" />
        <line x1="0" y1="370" x2="800" y2="370" stroke="#334455" stroke-width="0.5" opacity="0.05" />
        <line x1="0" y1="400" x2="800" y2="400" stroke="#334455" stroke-width="0.5" opacity="0.05" />
        <line x1="0" y1="430" x2="800" y2="430" stroke="#334455" stroke-width="0.5" opacity="0.05" />
        <line x1="0" y1="460" x2="800" y2="460" stroke="#334455" stroke-width="0.5" opacity="0.05" />
        <line x1="0" y1="490" x2="800" y2="490" stroke="#334455" stroke-width="0.5" opacity="0.05" />
        <line x1="0" y1="520" x2="800" y2="520" stroke="#334455" stroke-width="0.5" opacity="0.05" />
        <line x1="0" y1="550" x2="800" y2="550" stroke="#334455" stroke-width="0.5" opacity="0.05" />
        <line x1="0" y1="580" x2="800" y2="580" stroke="#334455" stroke-width="0.5" opacity="0.05" />
        
        <!-- 垂直线 -->
        <line x1="10" y1="0" x2="10" y2="600" stroke="#334455" stroke-width="0.5" opacity="0.05" />
        <line x1="40" y1="0" x2="40" y2="600" stroke="#334455" stroke-width="0.5" opacity="0.05" />
        <line x1="70" y1="0" x2="70" y2="600" stroke="#334455" stroke-width="0.5" opacity="0.05" />
        <line x1="100" y1="0" x2="100" y2="600" stroke="#334455" stroke-width="0.5" opacity="0.05" />
        <line x1="130" y1="0" x2="130" y2="600" stroke="#334455" stroke-width="0.5" opacity="0.05" />
        <line x1="160" y1="0" x2="160" y2="600" stroke="#334455" stroke-width="0.5" opacity="0.05" />
        <line x1="190" y1="0" x2="190" y2="600" stroke="#334455" stroke-width="0.5" opacity="0.05" />
        <line x1="220" y1="0" x2="220" y2="600" stroke="#334455" stroke-width="0.5" opacity="0.05" />
        <line x1="250" y1="0" x2="250" y2="600" stroke="#334455" stroke-width="0.5" opacity="0.05" />
        <line x1="280" y1="0" x2="280" y2="600" stroke="#334455" stroke-width="0.5" opacity="0.05" />
        <line x1="310" y1="0" x2="310" y2="600" stroke="#334455" stroke-width="0.5" opacity="0.05" />
        <line x1="340" y1="0" x2="340" y2="600" stroke="#334455" stroke-width="0.5" opacity="0.05" />
        <line x1="370" y1="0" x2="370" y2="600" stroke="#334455" stroke-width="0.5" opacity="0.05" />
        <line x1="400" y1="0" x2="400" y2="600" stroke="#334455" stroke-width="0.5" opacity="0.05" />
        <line x1="430" y1="0" x2="430" y2="600" stroke="#334455" stroke-width="0.5" opacity="0.05" />
        <line x1="460" y1="0" x2="460" y2="600" stroke="#334455" stroke-width="0.5" opacity="0.05" />
        <line x1="490" y1="0" x2="490" y2="600" stroke="#334455" stroke-width="0.5" opacity="0.05" />
        <line x1="520" y1="0" x2="520" y2="600" stroke="#334455" stroke-width="0.5" opacity="0.05" />
        <line x1="550" y1="0" x2="550" y2="600" stroke="#334455" stroke-width="0.5" opacity="0.05" />
        <line x1="580" y1="0" x2="580" y2="600" stroke="#334455" stroke-width="0.5" opacity="0.05" />
        <line x1="610" y1="0" x2="610" y2="600" stroke="#334455" stroke-width="0.5" opacity="0.05" />
        <line x1="640" y1="0" x2="640" y2="600" stroke="#334455" stroke-width="0.5" opacity="0.05" />
        <line x1="670" y1="0" x2="670" y2="600" stroke="#334455" stroke-width="0.5" opacity="0.05" />
        <line x1="700" y1="0" x2="700" y2="600" stroke="#334455" stroke-width="0.5" opacity="0.05" />
        <line x1="730" y1="0" x2="730" y2="600" stroke="#334455" stroke-width="0.5" opacity="0.05" />
        <line x1="760" y1="0" x2="760" y2="600" stroke="#334455" stroke-width="0.5" opacity="0.05" />
        <line x1="790" y1="0" x2="790" y2="600" stroke="#334455" stroke-width="0.5" opacity="0.05" />
    </g>
    
    <!-- 中央图形符号 - 表达"君子借物"的意象 -->
    <g class="ink-element central-symbol">
        <!-- 外圆 - 代表外物资源环境 -->
        <circle cx="400" cy="300" r="150" fill="none" stroke="#334455" stroke-width="2" opacity="0.7" />
            
        <!-- 内圆 - 代表人的内在本性 -->
        <circle cx="400" cy="300" r="70" fill="#4a7fb5" opacity="0.1" />
            
        <!-- 连接线 - 表达"善假"的借用关系 -->
        <line x1="470" y1="300" x2="550" y2="300" stroke="#4a7fb5" stroke-width="1" opacity="0.5" />
        <circle cx="510" cy="300" r="3" fill="#4a7fb5" opacity="0.7" />
        
        <line x1="435" y1="335" x2="520" y2="375" stroke="#4a7fb5" stroke-width="1" opacity="0.5" />
        <circle cx="477.5" cy="355" r="3" fill="#4a7fb5" opacity="0.7" />
        
        <line x1="400" y1="370" x2="400" y2="450" stroke="#4a7fb5" stroke-width="1" opacity="0.5" />
        <circle cx="400" cy="410" r="3" fill="#4a7fb5" opacity="0.7" />
        
        <line x1="365" y1="335" x2="280" y2="375" stroke="#4a7fb5" stroke-width="1" opacity="0.5" />
        <circle cx="322.5" cy="355" r="3" fill="#4a7fb5" opacity="0.7" />
        
        <line x1="330" y1="300" x2="250" y2="300" stroke="#4a7fb5" stroke-width="1" opacity="0.5" />
        <circle cx="290" cy="300" r="3" fill="#4a7fb5" opacity="0.7" />
        
        <line x1="365" y1="265" x2="280" y2="225" stroke="#4a7fb5" stroke-width="1" opacity="0.5" />
        <circle cx="322.5" cy="245" r="3" fill="#4a7fb5" opacity="0.7" />
        
        <line x1="400" y1="230" x2="400" y2="150" stroke="#4a7fb5" stroke-width="1" opacity="0.5" />
        <circle cx="400" cy="190" r="3" fill="#4a7fb5" opacity="0.7" />
        
        <line x1="435" y1="265" x2="520" y2="225" stroke="#4a7fb5" stroke-width="1" opacity="0.5" />
        <circle cx="477.5" cy="245" r="3" fill="#4a7fb5" opacity="0.7" />
        
        <!-- 君子图形 - 简化的人形符号 -->
        <path d="M400,260 C370,260 370,340 400,340 C430,340 430,260 400,260" 
            fill="none" stroke="#334455" stroke-width="2" opacity="0.8" />
    </g>
    
    <!-- 上部文字 - 第一部分内容 -->
    <g class="text-content upper">
        <text x="400" y="120" 
            font-family="'Noto Serif SC', serif" 
            font-size="32" 
            text-anchor="middle" 
            fill="#334455">
            君子性非异也
        </text>
    </g>
    
    <!-- 下部文字 - 第二部分内容 -->
    <g class="text-content lower">
        <text x="400" y="480" 
            font-family="'Noto Serif SC', serif" 
            font-size="32" 
            text-anchor="middle" 
            fill="#334455">
            善假于物也
        </text>
    </g>
    
    <!-- 来源信息 -->
    <g class="source-info">
        <text x="760" y="560" 
            font-family="'Noto Serif SC', serif" 
            font-size="16" 
            text-anchor="end" 
            fill="#334455" opacity="0.7">
            — 荀子·劝学
        </text>
    </g>
    
    <!-- 装饰元素 - 传统纹样 -->
    <g class="ink-element decoration">
        <!-- 左上角装饰 -->
        <path d="M40,40 h60 q-10,10 -10,30 q-20,-10 -30,-10 q10,-10 10,-30 q10,10 30,10 h-60 Z" 
            fill="none" stroke="#334455" stroke-width="1" opacity="0.3" />
            
        <!-- 右上角装饰 -->
        <path d="M760,40 h-60 q10,10 10,30 q20,-10 30,-10 q-10,-10 -10,-30 q-10,10 -30,10 h60 Z" 
            fill="none" stroke="#334455" stroke-width="1" opacity="0.3" />
            
        <!-- 左下角装饰 -->
        <path d="M40,560 h60 q-10,-10 -10,-30 q-20,10 -30,10 q10,10 10,30 q10,-10 30,-10 h-60 Z" 
            fill="none" stroke="#334455" stroke-width="1" opacity="0.3" />
            
        <!-- 右下角装饰 -->
        <path d="M760,560 h-60 q10,-10 10,-30 q20,10 30,10 q-10,10 -10,30 q-10,-10 -30,-10 h60 Z" 
            fill="none" stroke="#334455" stroke-width="1" opacity="0.3" />
    </g>
    
    <!-- 动态效果 -->
    <circle cx="400" cy="300" r="70" 
        fill="none" stroke="#4a7fb5" stroke-width="1" opacity="0.5">
        <animate attributeName="r" from="70" to="150" dur="8s" repeatCount="indefinite" />
        <animate attributeName="opacity" from="0.5" to="0" dur="8s" repeatCount="indefinite" />
    </circle>
</svg>